<?xml version="1.0" encoding="UTF-8"?>
<svg id="Layer_2" data-name="Layer 2" xmlns="http://www.w3.org/2000/svg" viewBox="0 0 716.67 614.61">
  <defs>
    <style>
      .cls-1 {
        fill: #e655a3;
      }

      .cls-2 {
        fill: #fff;
      }

      .cls-3 {
        fill: #f2f2f2;
      }
    </style>
  </defs>
  <g id="Layer_1-2" data-name="Layer 1">
    <g>
      <path class="cls-1" d="M141.42,372.84s88.15,8.42,88.15,30.52v151.68s-3.07,43.6,28.86,59.57H108.59s31.93-9.21,31.93-74.3.32-166.9.89-167.46Z"/>
      <path class="cls-1" d="M31.64,252.73s9.78,71.11,124.44,96c114.67,24.89,120.89,40,171.56,124.44,50.67,84.44,80.89,141.33,80.89,141.33h240s20.44-6.22,54.22-101.33c0,0-8.83,23.32-90.66,23.87-81.83.55-110.58-.55-110.58-.55,0,0-27.64,14.93-53.08,22.67,0,0,39.26-24.33,39.26-60.82V214.15s.55-37.04,27.09-51.42h-143.75s28.75,21.01,28.75,57.5v215.08s-76.3-126.06-102.84-169.74c-26.54-43.68-74.64-69.66-127.17-102.29C117.25,130.67,45.93,78.69,42.06,9.03c0,0-35.39,96.2,35.39,165.32,56.95,46.44,93.44,61.92,116.66,89.02,0,0-63.03-28.2-117.21-60.82C22.71,169.92,1.14,115.18,1.14,115.18c0,0-27.09,124.4,182.46,194.07,0,0-39.26-2.76-71.32-13.27-32.07-10.5-57.88-26.24-80.64-43.25Z"/>
      <path class="cls-3" d="M548.13,25.04c-5.43-26.73-85.43-33.06-178.68-14.12-93.25,18.94-164.45,55.96-159.02,82.69,5.43,26.73,85.43,33.06,178.68,14.12,93.25-18.94,164.45-55.96,159.02-82.69ZM387.97,85.08c-73.75,14.98-136.13,14.39-139.31-1.3-3.19-15.7,54.02-40.56,127.77-55.54,73.75-14.98,136.13-14.39,139.31,1.3,3.19,15.7-54.02,40.56-127.77,55.54Z"/>
      <g>
        <path class="cls-2" d="M698.89,460.85l1.39,4.45c9.6-13.69,15.55-30.13,16.38-47.92l-3,.73c-5.03,20.74-14.77,42.74-14.77,42.74Z"/>
        <path class="cls-2" d="M611.53,487.87c-8.47,6.12-14.75,8.94-18.58,10.23,10.15,3.91,21.17,6.07,32.7,6.07s23.1-2.27,33.47-6.37l-7.04-7.41c-21.37,2.83-40.54-2.51-40.54-2.51Z"/>
        <path class="cls-2" d="M692.29,353.06l2.29.42c-7.46-8.63-16.51-15.84-26.7-21.18l-.1,1.28,24.51,19.48Z"/>
        <path class="cls-2" d="M614.36,330.12l.33-7.53c-24.31,2.92-45.68,15.4-60.22,33.58l27.53-3.74c16.66-16.66,32.37-22.31,32.37-22.31Z"/>
        <path class="cls-2" d="M556.85,408.99l-20.63-13.5c-1.11,5.68-1.7,11.54-1.7,17.54,0,22.21,7.95,42.56,21.16,58.37,4.12-11.27,10.92-24.7,10.92-24.7-7.54-17.28-9.74-37.71-9.74-37.71Z"/>
        <path class="cls-2" d="M667.19,338.51l26.44,20.44,5.78,28.67-21.78,8.22-25.56-22.44-2.67-28.44,17.78-6.44ZM615.61,333.89s8.8,1.26,28.91,10.68c0,0,3.14,15.4,2.83,30.48l-28.53,17.1-32.69-11.25-1.25-25.72s13.41-13.28,30.73-21.29ZM570.41,444.49s-8.03-20.48-8.56-34.59l21.6-24.36,32.33,9.82s5.89,19.83,9.29,34.12l-23.58,26.26s-23.76-7.5-31.08-11.25ZM650.31,487.17s-21.33-.44-34.44-3.11c0,0-9.33-19.56-11.11-24.22l23.78-25.33,32.89,1.33,12.22,26.44-23.33,24.89ZM666.31,434.06s9.33-24.44,12.89-33.33l20-7.33,10.67,22s-5.33,23.56-13.33,38.44l-18.44,5.56-11.78-25.33Z"/>
        <path class="cls-2" d="M618.82,392.15l28.53-17.1c.31-15.08-2.83-30.48-2.83-30.48-20.11-9.43-28.91-10.68-28.91-10.68-17.32,8.01-30.73,21.29-30.73,21.29l1.25,25.72,32.69,11.25Z"/>
        <path class="cls-2" d="M615.79,395.37l-32.33-9.82-21.6,24.36c.54,14.11,8.56,34.59,8.56,34.59,7.32,3.75,31.08,11.25,31.08,11.25l23.58-26.26c-3.39-14.29-9.29-34.12-9.29-34.12Z"/>
        <path class="cls-2" d="M628.53,434.51l-23.78,25.33c1.78,4.67,11.11,24.22,11.11,24.22,13.11,2.67,34.44,3.11,34.44,3.11l23.33-24.89-12.22-26.44-32.89-1.33Z"/>
        <path class="cls-2" d="M709.86,415.4l-10.67-22-20,7.33c-3.56,8.89-12.89,33.33-12.89,33.33l11.78,25.33,18.44-5.56c8-14.89,13.33-38.44,13.33-38.44Z"/>
        <polygon class="cls-2" points="677.64 395.84 699.42 387.62 693.64 358.95 667.19 338.51 649.42 344.95 652.08 373.4 677.64 395.84"/>
      </g>
    </g>
  </g>
</svg>